<svg xmlns="http://www.w3.org/2000/svg" xml:space="preserve" width="163.839" height="163.839" style="shape-rendering:geometricPrecision;text-rendering:geometricPrecision;image-rendering:optimizeQuality;fill-rule:evenodd;clip-rule:evenodd" viewBox="0 0 258 258"><rect width="258" height="258" rx="28" ry="28" style="fill:#3b5999"/><path d="M84 106h27v-5c0-8-1-18 0-26 1-19 11-31 37-32l26 1v28c-11 0-30-4-32 10v24h30l-3 31h-27v78h-31v-78l-27-1v-30z" style="fill:#fff"/><path d="m258 128-84-84v28c-11 0-30-4-32 10v24h30l-3 31h-27v78h-31l43 43h76l28-28V128z" style="fill:#30487c"/></svg>