<svg height="163.839" style="shape-rendering:geometricPrecision;text-rendering:geometricPrecision;image-rendering:optimizeQuality;fill-rule:evenodd;clip-rule:evenodd" viewBox="0 0 261 261" width="163.839" xml:space="preserve" xmlns="http://www.w3.org/2000/svg"><defs><style>.fil4{fill:#1a82b7}</style></defs><g id="Layer_x0020_1"><g id="_445047880"><rect height="261" rx="28" ry="28" width="261" style="fill:#20a0e1"/><path d="M172 100c1-2 3-2 3-5-4 0-7 3-9 4l-67 42 13 41c2-2 2-4 2-8 0-2 1-6 1-8v-7c1-1 1-2 1-4v-3c1-2 2-1 3-3 15-16 36-34 53-49z" style="fill:#ccd8e6"/><path d="m66 129 33 12 70-44c2-1 4-2 6-2 0 3-4 6-6 8-15 13-40 32-53 47l12 9c2 0 7 5 8 6 2 1 10 7 11 9 2 0 2 1 3 2l10 7c4 3 8 8 15 3l22-100c3-17-5-14-16-10L69 121c-4 2-8 7-3 8z" style="fill:#fefefe"/><path d="m112 182 1 1c2 0 4-1 6-3l17-15c-1-1-6-6-8-6l-12-9-4 32z" style="fill:#abbdd5"/><path class="fil4" d="m261 139-65-65c2 2 2 5 1 12l-22 100c-7 5-11 0-15-3l-10-7c-1-1-1-2-3-2-1-2-9-8-11-9l-17 15-6 3 79 78h41l28-28v-94zM66 129l43 44-10-32z"/></g></g></svg>